<?xml version="1.0" encoding="utf-8"?>
<!-- Generator: Adobe Illustrator 26.3.1, SVG Export Plug-In . SVG Version: 6.00 Build 0)  -->
<svg version="1.1" id="Layer_1" xmlns="http://www.w3.org/2000/svg" xmlns:xlink="http://www.w3.org/1999/xlink" x="0px" y="0px"
	 viewBox="0 0 283.5 283.5" style="enable-background:new 0 0 283.5 283.5;" xml:space="preserve">
<style type="text/css">
	.st0{fill:#FFFFFF;}
</style>
<g>
	<g>
		<path class="st0" d="M161.8,129.7c0,0-20.7-16.6-65.7,12.7c0,3.4,1.8,19.1,18,30.5c5.9-4.5,5.9-4.5,5.9-4.5l-2.5-8.2l-5.9-0.5
			l-1.6-9.8c0,0-0.5-5.9,15.2-5.5c3.7,0,7-2.5,13,11.6c5.9,14.1,6.4,15,6.4,15l-5.9,11.1c0,0,5,32.7,0.5,54.3c3.9,3,3.9,3,3.9,3
			l-5.2,3.4c0,0-3.9,2.5-0.7,9.8c3.2,7.3,7,17.5,7,17.5S179.7,187.4,161.8,129.7z"/>
		<path class="st0" d="M138,197.6c0,0-3.9,17.6-13.3,37.1c1,0.9,1.2,1.7,3.1,1.4c0.3,1.7,0.3,1.7,0.3,1.7s-8.3,2.2-7.4,7.4
			s3.4,17,4.2,20.3s1.1,4,1.1,4s5.9-10.7,6.9-12.5s1.8-4.5,1.1-7.7s-0.7-3.2-0.7-3.2s-0.8-3.3,2.8-4.8c1.7-0.8,2.4-1.4,2.4-1.4
			l-2.6-2C136.1,237.8,141.3,217.5,138,197.6z"/>
		<path class="st0" d="M154.3,123.8c0,0-8.2-52.7-6.9-56c1.4-3.2,2.1-3.9,3.4-5.6c1.2-1.7,1.6-6.5-1.3-4.9c-2.9,1.5-4.4,1.9-4.4,1.9
			s-3.6-10.7-3.2-15.7c-3.6,0-3.6,0-3.6,0v70.7c0,0-3.2,0.5-2.7-5.1s-2.1-6-4-6s-2,0-2,0l-1.4-3.1l-2.9-0.3l-2.6,1.2l-1-2.2h-10.9
			c0,0-8,13.8-1,21.6s17.2,4.8,24.2,2.7C137,122.3,144.6,121.8,154.3,123.8z"/>
		<polygon class="st0" points="160.8,11.6 167.5,25 182.3,27.2 171.6,37.7 174.1,52.4 160.8,45.5 147.6,52.4 150.1,37.7 139.3,27.2 
			154.2,25 		"/>
	</g>
	<path class="st0" d="M117.1,242.6c0,0,2.9,19.7,4.7,26.8c-8,0-136.1-61.2-60.2-165.1c11,7,11,7,11,7S15.2,204.6,117.1,242.6z"/>
	<path class="st0" d="M148.3,269.6l12.4-30c0,0,96.4-11,76.9-112C246.8,166.2,271,243.6,148.3,269.6z"/>
	<path class="st0" d="M227.1,119.7c0,0,34.9,92.6-53,111.9c12-8,62-30,34-104C227.1,119.7,227.1,119.7,227.1,119.7z"/>
	<path class="st0" d="M77.8,112.8c0,0-36.6,61.6-4.7,96.7c-18.9-21.9-5.2-58.1,16.4-87.6C77.8,112.8,77.8,112.8,77.8,112.8z"/>
	<polygon class="st0" points="208.4,104.4 214.4,109.5 221.9,107.4 219,114.7 223.3,121.2 215.5,120.6 210.6,126.7 208.7,119.1 
		201.4,116.4 208.1,112.3 	"/>
	<polygon class="st0" points="74.4,96.5 73.9,101.4 77.6,104.6 72.8,105.6 70.9,110.2 68.5,105.9 63.6,105.6 66.8,101.9 65.7,97.1 
		70.2,99.1 	"/>
</g>
</svg>
