<?xml version="1.0" encoding="utf-8"?>
<!-- Generator: Adobe Illustrator 26.3.1, SVG Export Plug-In . SVG Version: 6.00 Build 0)  -->
<svg version="1.1" id="Layer_1" xmlns="http://www.w3.org/2000/svg" xmlns:xlink="http://www.w3.org/1999/xlink" x="0px" y="0px"
	 viewBox="0 0 283.5 283.5" style="enable-background:new 0 0 283.5 283.5;" xml:space="preserve">
<style type="text/css">
	.st0{fill:#F58532;}
	.st1{fill:#414242;}
</style>
<g>
	<g>
		<path class="st0" d="M162.8,128.2c0,0-20.7-16.6-65.7,12.7c0,3.4,1.8,19.1,18,30.5c5.9-4.5,5.9-4.5,5.9-4.5l-2.5-8.2l-5.9-0.5
			l-1.6-9.8c0,0-0.5-5.9,15.2-5.5c3.7,0,7-2.5,13,11.6c5.9,14.1,6.4,15,6.4,15l-5.9,11.1c0,0,5,32.7,0.5,54.3c3.9,3,3.9,3,3.9,3
			l-5.2,3.4c0,0-3.9,2.5-0.7,9.8c3.2,7.3,7,17.5,7,17.5S180.7,185.9,162.8,128.2z"/>
		<path class="st1" d="M139,196.1c0,0-3.9,17.6-13.3,37.1c1,0.9,1.2,1.7,3.1,1.4c0.3,1.7,0.3,1.7,0.3,1.7s-8.3,2.2-7.4,7.4
			c0.9,5.2,3.4,17,4.2,20.3c0.8,3.3,1.1,4,1.1,4s5.9-10.7,6.9-12.5c1-1.8,1.8-4.5,1.1-7.7c-0.7-3.2-0.7-3.2-0.7-3.2
			s-0.8-3.3,2.8-4.8c1.7-0.8,2.4-1.4,2.4-1.4l-2.6-2C137.1,236.4,142.3,216,139,196.1z"/>
		<path class="st0" d="M155.3,122.3c0,0-8.2-52.7-6.9-56c1.4-3.2,2.1-3.9,3.4-5.6c1.2-1.7,1.6-6.5-1.3-4.9c-2.9,1.5-4.4,1.9-4.4,1.9
			s-3.6-10.7-3.2-15.7c-3.6,0-3.6,0-3.6,0v70.7c0,0-3.2,0.5-2.7-5.1c0.5-5.6-2.1-6-4-6s-2,0-2,0l-1.4-3.1l-2.9-0.3l-2.6,1.2l-1-2.2
			h-10.9c0,0-8,13.8-1,21.6s17.2,4.8,24.2,2.7C138,120.9,145.6,120.3,155.3,122.3z"/>
		<polygon class="st1" points="161.8,10.1 168.5,23.6 183.3,25.7 172.6,36.2 175.1,51 161.8,44 148.6,51 151.1,36.2 140.3,25.7 
			155.2,23.6 		"/>
	</g>
	<path class="st0" d="M118.1,241.2c0,0,2.9,19.7,4.7,26.8c-8,0-136.1-61.2-60.2-165.1c11,7,11,7,11,7S16.2,203.2,118.1,241.2z"/>
	<path class="st0" d="M149.3,268.2l12.4-30c0,0,96.4-11,76.9-112C247.8,164.8,272,242.2,149.3,268.2z"/>
	<path class="st1" d="M228.1,118.3c0,0,34.9,92.6-53,111.9c12-8,62-30,34-104C228.1,118.3,228.1,118.3,228.1,118.3z"/>
	<path class="st1" d="M78.8,111.3c0,0-36.6,61.6-4.7,96.7c-18.9-21.9-5.2-58.1,16.4-87.6C78.8,111.3,78.8,111.3,78.8,111.3z"/>
	<polygon class="st0" points="209.4,103 215.4,108 222.9,106 220,113.2 224.3,119.8 216.5,119.2 211.6,125.3 209.7,117.7 
		202.4,114.9 209.1,110.8 	"/>
	<polygon class="st1" points="75.4,95.1 74.9,100 78.6,103.2 73.8,104.2 71.9,108.7 69.5,104.5 64.6,104.1 67.8,100.4 66.7,95.6 
		71.2,97.6 	"/>
</g>
</svg>
